<svg id="visual" viewBox="0 0 900 600" width="900" height="600" xmlns="http://www.w3.org/2000/svg" xmlns:xlink="http://www.w3.org/1999/xlink" version="1.1"><path d="M0 556L21.5 558.7C43 561.3 86 566.7 128.8 569.8C171.7 573 214.3 574 257.2 571.5C300 569 343 563 385.8 564.2C428.7 565.3 471.3 573.7 514.2 573.3C557 573 600 564 642.8 560.5C685.7 557 728.3 559 771.2 563.5C814 568 857 575 878.5 578.5L900 582L900 601L878.5 601C857 601 814 601 771.2 601C728.3 601 685.7 601 642.8 601C600 601 557 601 514.2 601C471.3 601 428.7 601 385.8 601C343 601 300 601 257.2 601C214.3 601 171.7 601 128.8 601C86 601 43 601 21.5 601L0 601Z" fill="#fff" stroke-linecap="round" stroke-linejoin="miter"></path></svg>